<svg width="3014" height="1699" xmlns="http://www.w3.org/2000/svg" xmlns:xlink="http://www.w3.org/1999/xlink" xml:space="preserve" overflow="hidden"><defs><filter id="fx0" x="-10%" y="-10%" width="120%" height="120%" filterUnits="userSpaceOnUse" primitiveUnits="userSpaceOnUse"><feComponentTransfer color-interpolation-filters="sRGB"><feFuncR type="discrete" tableValues="0 0"/><feFuncG type="discrete" tableValues="0 0"/><feFuncB type="discrete" tableValues="0 0"/><feFuncA type="linear" slope="0.160784" intercept="0"/></feComponentTransfer><feGaussianBlur stdDeviation="7.99617 7.99617"/></filter><filter id="fx1" x="-10%" y="-10%" width="120%" height="120%" filterUnits="userSpaceOnUse" primitiveUnits="userSpaceOnUse"><feComponentTransfer color-interpolation-filters="sRGB"><feFuncR type="discrete" tableValues="0 0"/><feFuncG type="discrete" tableValues="0 0"/><feFuncB type="discrete" tableValues="0 0"/><feFuncA type="linear" slope="0.121569" intercept="0"/></feComponentTransfer><feGaussianBlur stdDeviation="6.96082 6.96082"/></filter><clipPath id="clip2"><rect x="661" y="466" width="3014" height="1699"/></clipPath><linearGradient x1="1635.92" y1="1307.42" x2="2752.53" y2="1307.42" gradientUnits="userSpaceOnUse" spreadMethod="reflect" id="fill3"><stop offset="0" stop-color="#007D79"/><stop offset="0.0144928" stop-color="#007E7A"/><stop offset="0.0289855" stop-color="#00807C"/><stop offset="0.0434783" stop-color="#00827E"/><stop offset="0.057971" stop-color="#008480"/><stop offset="0.0724638" stop-color="#008682"/><stop offset="0.0869565" stop-color="#008783"/><stop offset="0.101449" stop-color="#008985"/><stop offset="0.115942" stop-color="#008B87"/><stop offset="0.130435" stop-color="#008D88"/><stop offset="0.144928" stop-color="#008E8A"/><stop offset="0.15942" stop-color="#00908C"/><stop offset="0.173913" stop-color="#00928D"/><stop offset="0.188406" stop-color="#00938F"/><stop offset="0.202899" stop-color="#009590"/><stop offset="0.217391" stop-color="#009692"/><stop offset="0.231884" stop-color="#009893"/><stop offset="0.246377" stop-color="#009995"/><stop offset="0.26087" stop-color="#009B96"/><stop offset="0.275362" stop-color="#009C98"/><stop offset="0.289855" stop-color="#009E99"/><stop offset="0.304348" stop-color="#009F9B"/><stop offset="0.318841" stop-color="#00A09C"/><stop offset="0.333333" stop-color="#00A29D"/><stop offset="0.347826" stop-color="#00A39F"/><stop offset="0.362319" stop-color="#00A4A0"/><stop offset="0.376812" stop-color="#00A6A1"/><stop offset="0.391304" stop-color="#00A7A2"/><stop offset="0.405797" stop-color="#00A8A3"/><stop offset="0.42029" stop-color="#00A9A5"/><stop offset="0.434783" stop-color="#00AAA6"/><stop offset="0.449275" stop-color="#00ACA7"/><stop offset="0.463768" stop-color="#00ADA8"/><stop offset="0.478261" stop-color="#00AEA9"/><stop offset="0.492754" stop-color="#00AFAA"/><stop offset="0.507246" stop-color="#00B0AB"/><stop offset="0.521739" stop-color="#00B1AC"/><stop offset="0.536232" stop-color="#00B2AD"/><stop offset="0.550725" stop-color="#00B3AE"/><stop offset="0.565217" stop-color="#00B4AF"/><stop offset="0.57971" stop-color="#00B5B0"/><stop offset="0.594203" stop-color="#00B6B1"/><stop offset="0.608696" stop-color="#00B6B2"/><stop offset="0.623188" stop-color="#00B7B2"/><stop offset="0.637681" stop-color="#00B8B3"/><stop offset="0.652174" stop-color="#00B9B4"/><stop offset="0.666667" stop-color="#00BAB5"/><stop offset="0.681159" stop-color="#00BAB5"/><stop offset="0.695652" stop-color="#00BBB6"/><stop offset="0.710145" stop-color="#00BCB7"/><stop offset="0.724638" stop-color="#00BCB7"/><stop offset="0.73913" stop-color="#00BDB8"/><stop offset="0.753623" stop-color="#00BDB9"/><stop offset="0.768116" stop-color="#00BEB9"/><stop offset="0.782609" stop-color="#00BEBA"/><stop offset="0.797101" stop-color="#00BFBA"/><stop offset="0.811594" stop-color="#00BFBA"/><stop offset="0.826087" stop-color="#00C0BB"/><stop offset="0.84058" stop-color="#00C0BB"/><stop offset="0.855072" stop-color="#00C1BC"/><stop offset="0.869565" stop-color="#00C1BC"/><stop offset="0.884058" stop-color="#00C1BC"/><stop offset="0.898551" stop-color="#00C2BD"/><stop offset="0.913043" stop-color="#00C2BD"/><stop offset="0.927536" stop-color="#00C2BD"/><stop offset="0.942029" stop-color="#00C2BD"/><stop offset="0.956522" stop-color="#00C2BD"/><stop offset="0.971014" stop-color="#00C2BD"/><stop offset="0.985507" stop-color="#00C2BD"/><stop offset="1" stop-color="#00C3BE"/></linearGradient><clipPath id="clip4"><rect x="264" y="227" width="2483" height="353"/></clipPath></defs><g clip-path="url(#clip2)" transform="translate(-661 -466)"><g filter="url(#fx0)" transform="matrix(2 0 0 2 1614 773)"><g><path d="M24.6752 24.7069 122.988 24.7069 271.488 200.707 418.613 24.7069 517.613 24.7069 517.613 50.1444 330.613 272.207 517.613 493.582 517.613 519.707 418.613 519.707 270.8 344.394 122.988 519.707 24.6752 519.707 24.6752 494.269 210.988 272.207 24.6752 50.1444Z" fill="#FF0000" fill-rule="evenodd"/></g></g><path d="M1699.17 822.414 1895.79 822.414 2192.79 1174.41 2487.04 822.414 2685.04 822.414 2685.04 873.289 2311.04 1317.41 2685.04 1760.16 2685.04 1812.41 2487.04 1812.41 2191.42 1461.79 1895.79 1812.41 1699.17 1812.41 1699.17 1761.54 2071.79 1317.41 1699.17 873.289Z" fill="url(#fill3)" fill-rule="evenodd"/><text fill="#000000" fill-opacity="0" font-family="Arial,Arial_MSFontService,sans-serif" font-size="990" x="1699.17" y="1688.66">X</text><g clip-path="url(#clip4)" filter="url(#fx1)" transform="translate(660 928)"><g><path d="M186.676 0 186.676 0 14.455-297.36 78.057-297.36 211.043-66.08 344.442-297.36 407.631-297.36 235.41 0ZM437.6 0 437.6-239.953C437.6-250.416 440.215-259.983 445.447-268.656 450.678-277.329 457.63-284.282 466.303-289.513 474.976-294.744 484.544-297.36 495.007-297.36L677.14-297.36C687.878-297.36 697.583-294.744 706.256-289.513 714.929-284.282 721.881-277.329 727.113-268.656 732.344-259.983 734.96-250.416 734.96-239.953L734.96 0 680.031 0 680.031-99.946 492.116-99.946 492.116 0 437.6 0ZM492.116-154.462 680.031-154.462 680.031-237.475C680.031-239.127 679.549-240.435 678.585-241.398 677.622-242.362 676.314-242.706 674.662-242.431L497.072-242.431C495.695-242.706 494.525-242.362 493.561-241.398 492.598-240.435 492.116-239.127 492.116-237.475L492.116-154.462ZM781.67 0 781.67-297.36 841.555-297.36 1024.1-80.122 1024.1-297.36 1079.03-297.36 1079.03 0 1019.14 0 836.186-217.651 836.186 0ZM1231.4 0 1231.4 0 1231.4-242.431 1109.98-242.844 1109.98-297.36 1407.34-297.36 1407.34-242.431 1285.92-242.844 1286.33 0ZM1438.49 0 1438.49-239.953C1438.49-250.416 1441.1-259.983 1446.33-268.656 1451.56-277.329 1458.52-284.282 1467.19-289.513 1475.86-294.744 1485.43-297.36 1495.89-297.36L1678.03-297.36C1688.76-297.36 1698.47-294.744 1707.14-289.513 1715.81-284.282 1722.77-277.329 1728-268.656 1733.23-259.983 1735.85-250.416 1735.85-239.953L1735.85 0 1680.92 0 1680.92-99.946 1493-99.946 1493 0 1438.49 0ZM1493-154.462 1680.92-154.462 1680.92-237.475C1680.92-239.127 1680.43-240.435 1679.47-241.398 1678.51-242.362 1677.2-242.706 1675.55-242.431L1497.96-242.431C1496.58-242.706 1495.41-242.362 1494.45-241.398 1493.48-240.435 1493-239.127 1493-237.475L1493-154.462ZM1839.96 0C1829.5 0 1819.93-2.61567 1811.26-7.847 1802.59-13.0783 1795.63-20.0305 1790.4-28.7035 1785.17-37.3765 1782.56-46.9443 1782.56-57.407L1782.56-239.953C1782.56-250.416 1785.17-259.983 1790.4-268.656 1795.63-277.329 1802.59-284.282 1811.26-289.513 1819.93-294.744 1829.5-297.36 1839.96-297.36L2022.09-297.36C2032.83-297.36 2042.54-294.744 2051.21-289.513 2059.88-284.282 2066.84-277.329 2072.07-268.656 2077.3-259.983 2079.92-250.416 2079.92-239.953L2079.92-216.825 2024.99-216.825 2024.99-237.475C2024.99-239.127 2024.5-240.435 2023.54-241.398 2022.58-242.362 2021.27-242.706 2019.62-242.431L1842.03-242.431C1840.65-242.706 1839.48-242.362 1838.52-241.398 1837.55-240.435 1837.07-239.127 1837.07-237.475L1837.07-59.885C1837.07-58.233 1837.55-56.9252 1838.52-55.9615 1839.48-54.9978 1840.65-54.6537 1842.03-54.929L2019.62-54.929C2021.27-54.6537 2022.58-54.9978 2023.54-55.9615 2024.5-56.9252 2024.99-58.233 2024.99-59.885L2024.99-113.575 1957.67-113.575 1957.67-168.091 2079.92-168.504 2079.92-57.407C2079.92-46.9443 2077.3-37.3765 2072.07-28.7035 2066.84-20.0305 2059.88-13.0783 2051.21-7.847 2042.54-2.61567 2032.83 0 2022.09 0ZM2125.99 0 2125.99-297.36 2399.39-297.36 2399.8-242.431 2180.91-242.844 2180.91-176.351 2356.85-175.938 2356.85-121.009 2180.91-121.422 2180.91-54.929 2399.39-54.516 2399.8 0Z" fill="#222656" transform="matrix(1.02 0 0 1.02 274.413 555)"/></g></g><text fill="#222656" font-family="Orbitron,Orbitron_MSFontService,sans-serif" font-weight="700" font-size="413" transform="matrix(1 0 0 1 978.729 1465)">VANTAGE</text></g></svg>